<svg width="360" height="116" viewBox="0 0 360 116" fill="none" xmlns="http://www.w3.org/2000/svg">
<mask id="mask0_425_2223" style="mask-type:alpha" maskUnits="userSpaceOnUse" x="0" y="0" width="360" height="116">
<rect width="360" height="116" fill="#D1D1D1"/>
</mask>
<g mask="url(#mask0_425_2223)">
<path d="M360 -51H-0.000152588V125H360V-51Z" fill="#5FD9FF"/>
<path d="M344.664 7.92149C337.136 7.7319 329.434 7.5704 322.289 9.94371C305.199 15.6277 294.803 34.5509 277.404 39.2098C265.772 42.3274 252.737 38.469 241.73 43.3596C232.528 47.4461 225.812 56.8762 216 59.3232C199.78 63.3676 189.918 44.9675 179.038 36.6293C173.842 32.6516 166.75 32.1882 160.43 33.8909C152.521 36.022 145.046 40.4842 136.704 40.8564C125.575 41.3514 124.027 30.3415 115.289 26.4094C108.46 23.3374 100.417 25.3035 93.1248 23.6007C80.7563 20.7078 73.682 8.80972 64.7119 0.920938C43.7559 -17.5143 12.0498 -5.74959 -1.34044 15.547C-5.97821 22.9196 -5.75001 26.9079 -5.75001 35.2075V83.4635L360.603 86.7566V8.33225L344.664 7.92149Z" fill="#FFEDD6"/>
<path d="M102.364 78.9004C101.034 80.5961 98.5656 80.7435 96.3959 80.7471C64.8268 80.8208 31.6778 81.7231 0.108603 81.8003C-1.23518 76.9666 -2.16077 72.0262 -2.65791 67.0339C-2.77728 65.8472 -2.27523 63.9619 -3.16698 63.172C-1.76266 62.4207 0.568517 62.0485 2.09923 62.4698C10.4514 60.5459 18.8633 58.6079 27.4262 58.2323C52.704 57.1088 76.8478 69.5055 102.14 70.4183C102.381 73.2388 102.456 76.071 102.364 78.9004Z" fill="#FFA754"/>
<path d="M279.376 83.4855H360.198C361.602 83.4855 364.299 83.2924 365.703 83.2924V65.6191C325.438 53.8789 281.135 56.5436 242.568 73.0233C255.411 75.9689 266.533 80.54 279.376 83.4855Z" fill="#FFA754"/>
<path d="M221.985 76.6152L203.42 68.9336C198.736 66.9956 194.032 65.0506 189.11 63.8218C169.649 58.9734 149.382 65.7844 130.529 72.6199C151.323 82.8293 174.881 88.0675 197.911 85.5537C206.06 84.669 215.279 81.3232 221.985 76.6152Z" fill="#FFA754"/>
<path d="M367.322 128.785C367.652 127.058 367.985 103.676 368.319 101.948C369.309 96.8261 368.08 90.8226 367.265 85.6793C346.653 84.1451 326.343 79.3599 305.995 76.2879C285.358 73.1703 267.2 67.0826 246.311 66.0715C226.331 65.106 205.017 74.7923 185.293 76.4424C169.846 77.7414 155.339 71.3061 140.45 68.3675C124.718 65.2745 115.074 64.797 99.24 66.9C85.7795 68.687 66.3894 76.7303 52.6235 76.2704C33.6651 75.6525 15.5002 65.5975 -3.01927 62.3009C-3.84431 72.9175 -2.2469 124.586 -2.84373 128.767" fill="#D57300"/>
<path d="M114.968 129.477C137.613 105.779 165.749 93.7788 188.695 87.7262C244.654 72.9773 302.484 76.6461 359.808 76.7936C370.341 76.8252 374.905 76.274 374.905 76.274V128.785L114.968 129.477Z" fill="#9D4C00"/>
<path d="M159.844 97.9525C159.107 96.2673 158.317 94.5154 156.891 93.3568C155.375 92.1281 153.314 91.7419 151.369 91.8999C150.593 91.963 149.684 92.0543 148.757 92.1877C147.863 92.3229 146.949 92.1647 146.152 91.7369C145.355 91.309 144.718 90.6345 144.337 89.8144C143.192 87.227 140.384 85.2925 137.505 85.6331C136.43 85.7594 135.272 86.1351 134.32 85.6331C133.534 85.2118 133.151 84.32 132.709 83.5266C130.662 79.928 126.34 78.0146 122.201 78.0919C119.441 78.1896 116.738 78.9097 114.295 80.1983C113.349 80.682 112.288 80.8966 111.228 80.8185C110.168 80.7405 109.15 80.373 108.284 79.756C105.686 77.8917 102.147 77.2352 98.928 77.7653C94.5114 78.4921 89.8491 82.3294 86.4015 85.1942C94.4307 85.9841 102.091 86.6266 110.099 87.7255C127.323 90.1129 144.688 93.6201 159.844 97.9525Z" fill="#175536"/>
<path d="M67.3764 87.9625C67.1501 85.5104 66.2793 83.1618 64.8521 81.155C61.3729 76.2856 55.0219 74.1545 49.0219 74.302C44.1524 74.4354 39.6235 75.3236 35.5896 77.7109C34.9525 78.0872 34.209 78.2427 33.4745 78.1532C32.74 78.0637 32.0556 77.7342 31.5275 77.2159C31.0634 76.7411 30.5609 76.3054 30.0249 75.9134C27.8447 74.3862 24.9202 74.2317 22.3608 74.9655C21.1756 75.306 20.0392 75.7981 18.9799 76.4295C18.1251 76.9196 17.1255 77.0946 16.155 76.924C15.1845 76.7533 14.3045 76.2479 13.6681 75.4956C12.9062 74.6004 12.2041 73.821 12.0356 73.6735C5.59323 68.1194 -2.61504 72.0621 -7.32303 77.8233C-9.53721 80.4613 -11.0234 83.6322 -11.6343 87.0216C-11.7782 87.8431 -12.2241 94.8331 -13 95.0052C12.8501 89.3247 40.926 88.8227 67.3764 87.9625Z" fill="#183A29"/>
<path d="M-1.52217 130.204L109.068 129.555C109.068 129.555 118.804 126.827 121.142 124.541C124.214 121.54 128.455 118.124 133.97 113.886C145.612 104.941 160.603 97.6943 160.603 97.6943C159.901 97.4837 159.217 97.2765 158.514 97.0729C115.458 84.5429 42.3453 79.7611 -1.8557 86.4352L-1.52217 130.204Z" fill="#BA5A00"/>
<path d="M94.4559 108.711C99.0199 109.199 104.377 109.715 108.948 110.203C117.118 111.077 125.344 111.959 133.198 114.374C131.53 115.196 121.212 124.078 116.167 129.471L77.8112 129.822L74.2126 108.757C74.2126 108.757 94.4559 108.799 94.4559 108.711Z" fill="#BA5A00"/>
<path d="M77.4357 107.69C79.4544 117.208 81.115 129.703 81.115 129.938" stroke="#A95200" stroke-miterlimit="10"/>
<path d="M81.6485 107.69C81.7609 108.392 85.3279 129.703 85.3279 129.938" stroke="#B4781F" stroke-miterlimit="10"/>
<path d="M86.2123 107.69C86.3247 108.392 89.8917 129.703 89.8917 129.938" stroke="#B4781F" stroke-miterlimit="10"/>
<path d="M90.9519 107.69C91.0642 108.392 94.6312 129.703 94.6312 129.938" stroke="#B4781F" stroke-linecap="round" stroke-linejoin="round"/>
<path d="M96.0359 109.347C96.1482 110.049 99.3712 129.71 99.3712 129.945" stroke="#B4781F" stroke-linecap="round" stroke-linejoin="round"/>
<path d="M100.308 110.168C100.421 110.87 103.584 129.709 103.584 129.945" stroke="#B4781F" stroke-linecap="round" stroke-linejoin="round"/>
<path d="M105.224 110.87C105.336 111.572 108.268 129.242 108.268 129.478" stroke="#B4781F" stroke-linecap="round" stroke-linejoin="round"/>
<path d="M110.725 112.04C110.834 112.742 113.414 129.243 113.414 129.478" stroke="#A95200" stroke-linecap="round" stroke-linejoin="round"/>
<path d="M115.552 112.04C115.637 112.591 117.188 122.502 117.894 127.137" stroke="#A95200" stroke-linecap="round" stroke-linejoin="round"/>
<path d="M121.696 113.181C121.756 113.578 122.43 118.489 123.017 122.801" stroke="#A95200" stroke-linecap="round" stroke-linejoin="round"/>
<path d="M127.395 114.146C127.395 114.227 127.658 115.902 127.988 118.124" stroke="#A95200" stroke-linecap="round" stroke-linejoin="round"/>
<path d="M61.9251 96.8278C61.9251 96.8278 62.859 87.2608 63.3294 83.7184C75.361 84.1784 90.3907 84.7717 103.791 86.822C101.106 93.1414 97.1209 102.406 94.4562 108.712C94.4281 108.905 74.2129 108.765 74.2129 108.765L61.9251 96.8278Z" fill="#763900"/>
<path d="M63.498 85.2559C63.4102 85.4315 89.8782 87.0464 102.524 88.4157" stroke="#BA5A00" stroke-linecap="round" stroke-linejoin="round"/>
<path d="M63.3855 88.6473C63.2977 88.8228 88.6282 90.7046 101.274 92.0563" stroke="#BA5A00" stroke-linecap="round" stroke-linejoin="round"/>
<path d="M62.5359 92.7306C62.4516 92.9061 87.0203 94.4508 99.6943 95.5111" stroke="#BA5A00" stroke-linecap="round" stroke-linejoin="round"/>
<path d="M62.0546 96.7815C62.1389 96.6727 84.436 98.1121 97.8649 99.1653" stroke="#BA5A00" stroke-linecap="round" stroke-linejoin="round"/>
<path d="M67.1879 101.501C73.5951 101.852 86.743 102.442 96.6014 103.105" stroke="#BA5A00" stroke-linecap="round" stroke-linejoin="round"/>
<path d="M71.5729 105.861C78.089 105.896 87.3294 105.935 95.0111 106.086" stroke="#BA5A00" stroke-linecap="round" stroke-linejoin="round"/>
<path d="M63.329 83.7178L62.0406 97.0027L-1.59277 103.498C-1.85609 103.322 -1.94386 86.8284 -1.85609 86.4352C0.777019 85.9226 4.16495 85.6523 7.32467 85.2977C25.9162 83.2117 44.6495 82.6833 63.329 83.7178Z" fill="#A95200"/>
<path d="M29.4045 83.7847C29.4396 84.687 29.6117 85.7824 29.6959 86.6811C30.1289 91.1633 30.5596 95.6466 30.9879 100.131" stroke="#BA5A00" stroke-linecap="round" stroke-linejoin="round"/>
<path d="M24.1242 84.0589C24.1558 84.9612 25.1774 96.3818 25.6198 100.865" stroke="#BA5A00" stroke-linecap="round" stroke-linejoin="round"/>
<path d="M18.6962 84.6514C18.7313 85.5537 18.8156 86.4524 18.9034 87.3512C19.3317 91.8345 19.7635 96.6127 20.1954 101.096" stroke="#BA5A00" stroke-linecap="round" stroke-linejoin="round"/>
<path d="M12.6612 84.799C12.6963 85.7013 12.7806 86.6001 12.8683 87.4988C13.2967 91.9821 13.7285 97.0798 14.1603 101.567" stroke="#BA5A00" stroke-linecap="round" stroke-linejoin="round"/>
<path d="M7.11776 85.4136C7.15287 86.3159 7.23713 87.2146 7.3249 88.1134C7.75322 92.5967 8.18504 97.726 8.61336 102.209" stroke="#BA5A00" stroke-linecap="round" stroke-linejoin="round"/>
<path d="M0.805058 86.0523C0.836655 86.9546 1.89692 98.3612 2.32524 102.844" stroke="#BA5A00" stroke-linecap="round" stroke-linejoin="round"/>
<path d="M34.6633 83.5286L36.1975 99.5274" stroke="#BA5A00" stroke-linecap="round" stroke-linejoin="round"/>
<path d="M40.7656 83.5286L42.1418 98.8042" stroke="#BA5A00" stroke-linecap="round" stroke-linejoin="round"/>
<path d="M45.2415 83.4131L46.6423 98.3481" stroke="#BA5A00" stroke-linecap="round" stroke-linejoin="round"/>
<path d="M49.7496 83.4131L51.024 97.674" stroke="#BA5A00" stroke-linecap="round" stroke-linejoin="round"/>
<path d="M54.5976 83.6722L55.6614 97.3047" stroke="#BA5A00" stroke-linecap="round" stroke-linejoin="round"/>
<path d="M59.19 83.6722L59.9905 96.8272" stroke="#BA5A00" stroke-linecap="round" stroke-linejoin="round"/>
<path d="M33.6771 99.8963C35.8819 110.755 36.0609 130.181 36.0609 130.181C36.0609 130.412 77.7237 129.594 77.7237 129.594C77.7237 129.594 75.1292 114.582 74.2129 108.765C74.2129 108.765 66.0924 100.216 61.9251 96.8279C53.0181 97.3896 33.6771 99.8963 33.6771 99.8963Z" fill="#BA5A00"/>
<path d="M34.8777 103.859L67.9776 103.104" stroke="#A95200" stroke-linecap="round" stroke-linejoin="round"/>
<path d="M35.429 99.9066L64.4107 99.2431" stroke="#A95200" stroke-linecap="round" stroke-linejoin="round"/>
<path d="M35.429 108.413L72.0151 107.188" stroke="#A95200" stroke-linecap="round" stroke-linejoin="round"/>
<path d="M35.429 113.328L74.2094 112.275" stroke="#A95200" stroke-linecap="round" stroke-linejoin="round"/>
<path d="M29.0043 100.156C29.6339 110.293 30.4286 120.417 31.3882 130.528" stroke="#AA9011" stroke-miterlimit="10"/>
<path d="M23.1516 100.156C23.7812 110.293 24.5758 120.417 25.5354 130.528" stroke="#A95200" stroke-miterlimit="10"/>
<path d="M18.2539 100.156C18.8811 110.293 19.6757 120.417 20.6377 130.528" stroke="#A95200" stroke-miterlimit="10"/>
<path d="M12.2188 100.156C12.8484 110.293 13.6431 120.417 14.6027 130.528" stroke="#A95200" stroke-miterlimit="10"/>
<path d="M5.48536 100.156C6.11028 110.293 6.90372 120.417 7.86568 130.528" stroke="#A95200" stroke-miterlimit="10"/>
<path d="M-0.816803 100.156C-0.19188 110.293 0.601562 120.417 1.56352 130.528" stroke="#AA9011" stroke-miterlimit="10"/>
<path d="M94.1047 108.879L103.777 86.8035C103.777 86.8035 108.102 87.2564 113.534 87.9901C119.53 88.7976 126.839 89.9246 130.298 90.5951L131.154 90.7566C134.535 91.3886 140.226 92.3681 145.549 93.6074C153.651 95.4962 161.203 97.9187 161.203 97.9187L133.198 114.36L94.1047 108.879Z" fill="#A95200"/>
<path d="M97.8792 109.61C100.688 103.586 104.234 94.3946 107.938 87.4924" stroke="#BA5A00" stroke-width="1.5" stroke-linecap="round" stroke-linejoin="round"/>
<path d="M102.18 109.698C104.989 103.674 108.271 94.9882 111.975 88.0929" stroke="#BA5A00" stroke-width="1.5" stroke-linecap="round" stroke-linejoin="round"/>
<path d="M105.81 111.453C108.618 105.429 112.529 95.5144 116.23 88.6332" stroke="#BA5A00" stroke-width="1.5" stroke-linecap="round" stroke-linejoin="round"/>
<path d="M111.076 111.454C113.885 105.429 117.395 96.2626 121.082 89.3673" stroke="#BA5A00" stroke-width="1.5" stroke-linecap="round" stroke-linejoin="round"/>
<path d="M116.511 112.275C119.32 106.25 122.683 97.0941 126.383 90.1989" stroke="#BA5A00" stroke-width="1.5" stroke-linecap="round" stroke-linejoin="round"/>
<path d="M121.138 113.093C123.947 107.124 127.496 97.891 131.161 91.0133" stroke="#BA5A00" stroke-width="1.5" stroke-linecap="round" stroke-linejoin="round"/>
<path d="M127.106 114.146C129.887 108.203 133.426 99.0253 137.081 92.1581" stroke="#BA5A00" stroke-width="1.5" stroke-linecap="round" stroke-linejoin="round"/>
<path d="M133.194 114.146C135.852 108.462 139.208 99.8253 142.673 93.081" stroke="#BA5A00" stroke-width="1.5" stroke-linecap="round" stroke-linejoin="round"/>
<path d="M141.006 109.217C143.031 104.541 145.31 99.078 147.676 94.3454" stroke="#BA5A00" stroke-width="1.5" stroke-linecap="round" stroke-linejoin="round"/>
<path d="M149.463 104.256C150.671 101.448 151.939 98.5792 153.234 95.8759" stroke="#BA5A00" stroke-width="1.5" stroke-linecap="round" stroke-linejoin="round"/>
<path d="M213.229 51.9658C219.004 51.9658 223.685 47.2849 223.685 41.5106C223.685 35.7364 219.004 31.0555 213.229 31.0555C207.455 31.0555 202.774 35.7364 202.774 41.5106C202.774 47.2849 207.455 51.9658 213.229 51.9658Z" fill="#FFD150"/>
<path d="M69.5183 68.1433L68.8161 83.9841L71.4983 84.1035C71.5651 83.5769 71.537 68.1433 71.537 68.1433" fill="#CA5B17"/>
<path d="M80.0403 70.9901C80.0403 70.9901 84.4709 68.0621 82.7296 64.2634C81.5184 61.6268 78.8221 60.8333 76.7612 61.0615C76.3891 59.6291 74.6547 55.5917 69.9819 55.2371C68.5344 55.1336 67.0831 55.3738 65.7462 55.9382C64.4094 56.5026 63.225 57.3751 62.2897 58.4846C60.6291 60.549 61.2048 63.8702 61.2048 63.8702C59.7795 65.9767 59.4845 70.1896 60.8292 72.2013C61.8297 73.617 63.2462 74.686 64.882 75.2597C66.5178 75.8335 68.2917 75.8837 69.9573 75.4032C69.9573 75.4032 72.5834 77.5799 76.3785 76.1053C79.5523 74.9152 80.0403 70.9901 80.0403 70.9901Z" fill="#175536"/>
<path d="M70.189 59.1446C70.189 59.2613 70.1544 59.3753 70.0896 59.4723C70.0248 59.5693 69.9327 59.6449 69.8249 59.6895C69.7172 59.7342 69.5986 59.7458 69.4842 59.7231C69.3697 59.7003 69.2646 59.6441 69.1822 59.5617C69.0997 59.4792 69.0435 59.3741 69.0207 59.2597C68.998 59.1452 69.0097 59.0267 69.0543 58.9189C69.0989 58.8111 69.1745 58.719 69.2715 58.6542C69.3685 58.5894 69.4826 58.5548 69.5992 58.5548C69.7557 58.5548 69.9057 58.6169 70.0163 58.7275C70.1269 58.8381 70.189 58.9882 70.189 59.1446Z" fill="#EF920F"/>
<path d="M65.9061 63.2983C65.802 63.3509 65.6847 63.3715 65.5689 63.3575C65.4531 63.3434 65.3442 63.2954 65.2557 63.2194C65.1672 63.1434 65.1033 63.0429 65.0719 62.9306C65.0405 62.8183 65.0432 62.6992 65.0794 62.5884C65.1157 62.4776 65.184 62.38 65.2758 62.308C65.3675 62.236 65.4785 62.1928 65.5948 62.1839C65.711 62.1749 65.8273 62.2007 65.929 62.2578C66.0306 62.3149 66.1131 62.4009 66.1659 62.5049C66.201 62.574 66.2221 62.6494 66.228 62.7267C66.234 62.8041 66.2246 62.8818 66.2005 62.9555C66.1764 63.0292 66.1379 63.0974 66.0874 63.1562C66.0369 63.2151 65.9753 63.2633 65.9061 63.2983Z" fill="#EF920F"/>
<path d="M70.1887 65.2919C70.5145 65.2919 70.7785 65.0279 70.7785 64.7021C70.7785 64.3764 70.5145 64.1123 70.1887 64.1123C69.863 64.1123 69.5989 64.3764 69.5989 64.7021C69.5989 65.0279 69.863 65.2919 70.1887 65.2919Z" fill="#EF920F"/>
<path d="M84.7095 68.4416L84.0073 84.8687L86.7142 85.0056C86.7809 84.479 86.7528 68.4416 86.7528 68.4416" fill="#CA5B17"/>
<path d="M77.0936 70.7766C77.0936 70.7766 72.6665 67.8486 74.4043 64.0499C75.6155 61.4132 78.3118 60.6198 80.3727 60.848C80.7448 59.4156 82.4792 55.3782 87.1485 55.0236C88.596 54.9197 90.0474 55.1598 91.3843 55.7242C92.7212 56.2887 93.9056 57.1614 94.8407 58.2711C96.5013 60.3354 95.9255 63.6567 95.9255 63.6567C97.3509 65.7631 98.3831 69.5653 96.7752 72.2441C94.4054 76.1586 90.4557 76.2078 87.1626 75.1896C87.1626 75.1896 84.533 77.3664 80.7378 75.8918C77.5816 74.7016 77.0936 70.7766 77.0936 70.7766Z" fill="#183A29"/>
<path d="M82.8385 62.7715C82.8392 62.8884 82.8051 63.0029 82.7406 63.1005C82.6761 63.198 82.584 63.2741 82.4761 63.3192C82.3681 63.3643 82.2493 63.3763 82.1345 63.3536C82.0198 63.331 81.9144 63.2747 81.8317 63.192C81.749 63.1093 81.6927 63.0039 81.6701 62.8892C81.6474 62.7744 81.6594 62.6555 81.7045 62.5476C81.7496 62.4397 81.8257 62.3476 81.9232 62.2831C82.0208 62.2186 82.1353 62.1845 82.2522 62.1852C82.4074 62.1861 82.556 62.2481 82.6658 62.3579C82.7755 62.4676 82.8376 62.6162 82.8385 62.7715Z" fill="#EF920F"/>
<path d="M78.6322 66.9632C78.6329 67.0801 78.5988 67.1947 78.5343 67.2922C78.4698 67.3897 78.3777 67.4659 78.2698 67.5109C78.1618 67.556 78.043 67.568 77.9282 67.5453C77.8135 67.5227 77.7081 67.4665 77.6254 67.3838C77.5427 67.3011 77.4864 67.1956 77.4638 67.0809C77.4411 66.9662 77.4531 66.8473 77.4982 66.7394C77.5433 66.6315 77.6194 66.5394 77.7169 66.4748C77.8145 66.4103 77.929 66.3762 78.0459 66.3769C78.2012 66.3778 78.3497 66.4399 78.4595 66.5496C78.5693 66.6594 78.6313 66.808 78.6322 66.9632Z" fill="#EF920F"/>
<path d="M89.7545 63.3618C90.0802 63.3618 90.3443 63.0977 90.3443 62.7719C90.3443 62.4462 90.0802 62.1821 89.7545 62.1821C89.4287 62.1821 89.1647 62.4462 89.1647 62.7719C89.1647 63.0977 89.4287 63.3618 89.7545 63.3618Z" fill="#EF920F"/>
<path d="M86.128 58.5551C86.128 58.6718 86.0934 58.7858 86.0286 58.8828C85.9638 58.9798 85.8716 59.0554 85.7639 59.1C85.6561 59.1447 85.5375 59.1564 85.4231 59.1336C85.3087 59.1108 85.2036 59.0547 85.1211 58.9722C85.0386 58.8897 84.9824 58.7846 84.9597 58.6702C84.9369 58.5558 84.9486 58.4372 84.9932 58.3294C85.0379 58.2216 85.1135 58.1295 85.2105 58.0647C85.3075 57.9999 85.4215 57.9653 85.5381 57.9653C85.6946 57.9653 85.8446 58.0274 85.9552 58.1381C86.0658 58.2487 86.128 58.3987 86.128 58.5551Z" fill="#EF920F"/>
<path d="M86.128 67.6029C86.1287 67.7197 86.0946 67.8341 86.0303 67.9315C85.9659 68.029 85.874 68.1051 85.7663 68.1503C85.6586 68.1955 85.5399 68.2077 85.4252 68.1853C85.3106 68.163 85.2052 68.1071 85.1223 68.0247C85.0395 67.9424 84.983 67.8373 84.9599 67.7228C84.9369 67.6083 84.9484 67.4895 84.9929 67.3815C85.0374 67.2735 85.113 67.1812 85.2101 67.1162C85.3072 67.0513 85.4213 67.0166 85.5381 67.0166C85.694 67.0166 85.8435 67.0782 85.954 67.1881C86.0645 67.298 86.127 67.4471 86.128 67.6029Z" fill="#EF920F"/>
<path d="M216.652 125.761L213.647 122.219C212.885 121.324 212.099 120.404 211.06 119.856C210.046 119.385 208.944 119.129 207.826 119.105C207.257 119.016 206.675 119.088 206.145 119.312C205.584 119.673 205.186 120.237 205.032 120.885C204.736 121.839 204.682 122.851 204.874 123.83C203.82 122.63 203.118 120.804 203.504 119.266C203.707 118.496 204.089 117.785 204.619 117.19C205.148 116.596 205.81 116.134 206.552 115.843C207.9 115.331 211.327 115.348 211.33 115.492C212.201 116.159 213.338 116.707 213.816 117.694C214.083 118.248 215.856 121.998 216.403 122.995C216.403 122.981 216.523 124.617 216.652 125.761Z" fill="#C2E17E"/>
<path d="M294.136 129.386C307.621 101.299 335.627 86.8313 360.645 97.8798C371.648 102.739 383.816 114.647 386.007 129.853L294.136 129.386Z" fill="#175536"/>
<path d="M265.106 128.825C274.413 109.445 293.743 99.4532 311.009 107.079C318.603 110.435 326.998 118.664 328.511 129.148L265.106 128.825Z" fill="#183A29"/>
<path d="M281.926 110.147L290.882 128.957" stroke="#175838" stroke-linecap="round" stroke-linejoin="round"/>
<path d="M287.308 107.152L292.233 128.979" stroke="#175838" stroke-linecap="round" stroke-linejoin="round"/>
<path d="M299.262 105.147C299.262 106.453 300.8 129.47 300.8 129.47" stroke="#175838" stroke-linecap="round" stroke-linejoin="round"/>
<path d="M310.988 107.028L326.513 130.158" stroke="#175838" stroke-linecap="round" stroke-linejoin="round"/>
<path d="M323.89 99.2625C324.736 108.928 326.369 120.615 328.195 130.158" stroke="#183A29" stroke-linecap="round" stroke-linejoin="round"/>
<path d="M308.882 106.636C307.791 115.998 306.7 125.36 305.609 134.722" stroke="#175838" stroke-linecap="round" stroke-linejoin="round"/>
<path d="M335.29 94.7515C338.735 106.784 342.181 118.82 345.626 130.86" stroke="#183A29" stroke-linecap="round" stroke-linejoin="round"/>
<path d="M347.838 94.8218L346.525 132.977" stroke="#183A29" stroke-linecap="round" stroke-linejoin="round"/>
<path d="M332.022 95.6221L342.273 129.853" stroke="#183A29" stroke-linecap="round" stroke-linejoin="round"/>
<path d="M353.508 128.919L366.54 102.524" stroke="#175838" stroke-linecap="round" stroke-linejoin="round"/>
<path d="M358.075 129.105C358.426 128.052 371.652 106.025 371.652 106.025" stroke="#175838" stroke-linecap="round" stroke-linejoin="round"/>
<path d="M317.234 102.609C317.346 103.919 317.458 105.23 317.568 106.541L318.136 113.194C318.263 114.71 318.393 116.227 318.54 117.758" stroke="#183A29" stroke-linecap="round" stroke-linejoin="round"/>
<path d="M342.171 94.3799C343.351 100.699 346.991 115.252 347.142 115.094" stroke="#183A29" stroke-linecap="round" stroke-linejoin="round"/>
<path d="M294.115 105.446C295.885 109.359 297.746 113.229 299.698 117.056" stroke="#175838" stroke-linecap="round" stroke-linejoin="round"/>
<path d="M-12.6378 138.335C3.72962 105.502 37.7177 88.6183 68.0827 101.528C81.4238 107.201 96.2007 121.114 98.8584 138.879L-12.6378 138.335Z" fill="#183A29"/>
<path d="M6.02218 115.375L19.3843 139.445" stroke="#175838" stroke-linecap="round" stroke-linejoin="round"/>
<path d="M21.9963 103.28C22.4281 104.947 31.321 139.441 31.321 139.441" stroke="#175838" stroke-linecap="round" stroke-linejoin="round"/>
<path d="M34.7301 98.8839C35.334 112.766 35.4077 126.114 34.9513 139.999" stroke="#175838" stroke-linecap="round" stroke-linejoin="round"/>
<path d="M28.4104 100.755C30.3359 106.097 32.5943 111.314 35.1722 116.374" stroke="#175838" stroke-linecap="round" stroke-linejoin="round"/>
<path d="M43.4963 97.5854L40.9896 138.595" stroke="#175838" stroke-linecap="round" stroke-linejoin="round"/>
<path d="M53.5407 98.3577C50.8163 111.624 48.5097 124.967 46.6209 138.388" stroke="#175838" stroke-linecap="round" stroke-linejoin="round"/>
<path d="M50.2759 115.374L65.4039 100.696" stroke="#175838" stroke-linecap="round" stroke-linejoin="round"/>
<path d="M71.59 103.827C68.7275 111.511 65.8685 119.197 63.0131 126.886C61.2893 131.527 60.1869 133.872 58.9651 138.672" stroke="#175838" stroke-linecap="round" stroke-linejoin="round"/>
<path d="M67.6017 139.444L82.1891 110.922" stroke="#175838" stroke-linecap="round" stroke-linejoin="round"/>
<path d="M68.2549 139.999L87.1396 115.375" stroke="#175838" stroke-linecap="round" stroke-linejoin="round"/>
<path d="M92.2369 133.034C101.544 113.636 120.875 103.662 138.141 111.288C145.735 114.64 154.132 122.873 155.646 133.357L92.2369 133.034Z" fill="#183A29"/>
<path d="M122.437 109.1L123.94 132.872" stroke="#175838" stroke-linecap="round" stroke-linejoin="round"/>
<path d="M117.673 110.147C120.418 117.917 122.646 125.861 124.344 133.925" stroke="#175838" stroke-linecap="round" stroke-linejoin="round"/>
<path d="M110.191 113.254C113.042 122.01 115.921 130.836 120.496 138.823" stroke="#175838" stroke-linecap="round" stroke-linejoin="round"/>
<path d="M130.554 109.118C129.817 117.802 128.803 126.453 127.514 135.074" stroke="#175838" stroke-linecap="round" stroke-linejoin="round"/>
<path d="M136.916 110.778L128.813 142.614" stroke="#175838" stroke-linecap="round" stroke-linejoin="round"/>
<path d="M227.143 24.2857C227.526 22.1617 227.494 20.0271 229.018 18.6333C230.541 17.2395 232.911 16.8077 234.512 18.0821C235.98 19.2547 236.654 21.628 238.423 22.0879C239.971 22.4917 241.456 21.1224 242.264 19.6304C243.071 18.1383 243.542 15.3121 244.651 14.0622C245.214 13.4224 245.942 12.9497 246.756 12.6959C247.57 12.442 248.437 12.4167 249.264 12.6228C250.104 12.8798 250.864 13.3482 251.471 13.9833C252.078 14.6184 252.511 15.3987 252.73 16.2495C253.165 17.8714 253.52 20.9645 254.917 21.6912C256.598 22.5619 257.374 19.4373 258.982 18.4332C259.739 17.9736 260.621 17.764 261.503 17.8339C262.385 17.9039 263.223 18.2499 263.897 18.8229C265.27 19.9955 265.811 22.6848 265.769 24.9879" fill="white"/>
<path d="M136.301 20.4068C136.718 18.0721 136.694 15.7234 138.361 14.1891C140.029 12.6549 142.641 12.195 144.403 13.5993C146.018 14.8878 146.763 17.4963 148.708 18.0054C150.41 18.4478 152.043 16.9522 152.921 15.2951C153.798 13.638 154.325 10.5449 155.547 9.17221C156.166 8.46793 156.968 7.94767 157.863 7.6684C158.758 7.38912 159.713 7.3616 160.623 7.58884C161.547 7.87237 162.382 8.38834 163.049 9.08729C163.716 9.78625 164.193 10.6448 164.433 11.5806C164.91 13.3676 165.3 16.7696 166.838 17.549C168.688 18.5074 169.53 15.0914 171.307 13.968C172.139 13.464 173.109 13.2342 174.079 13.311C175.049 13.3879 175.971 13.7675 176.713 14.3963C178.223 15.6848 178.82 18.6444 178.771 21.1757" fill="white"/>
<path d="M282.551 80.3821L282.638 81.8953" stroke="#364715" stroke-linecap="round" stroke-linejoin="round"/>
<path d="M283.491 81.8141L283.663 80.8943" stroke="#364715" stroke-linecap="round" stroke-linejoin="round"/>
<path d="M281.3 80.9365L281.715 82.0845" stroke="#364715" stroke-linecap="round" stroke-linejoin="round"/>
<path d="M294.28 93.3158C294.283 93.6382 294.319 93.9595 294.389 94.2743" stroke="#364715" stroke-linecap="round" stroke-linejoin="round"/>
<path d="M295.249 93.1401V94.4566" stroke="#364715" stroke-linecap="round" stroke-linejoin="round"/>
<path d="M269.533 90.3312V91.7355" stroke="#364715" stroke-linecap="round" stroke-linejoin="round"/>
<path d="M270.93 90.6787L270.677 91.7319" stroke="#364715" stroke-linecap="round" stroke-linejoin="round"/>
<path d="M268.293 91.0342L268.549 91.9154" stroke="#364715" stroke-linecap="round" stroke-linejoin="round"/>
<path d="M271.726 104.638V106.13" stroke="#364715" stroke-linecap="round" stroke-linejoin="round"/>
<path d="M272.678 106.211C272.766 105.832 272.857 105.453 272.948 105.074" stroke="#364715" stroke-linecap="round" stroke-linejoin="round"/>
<path d="M270.393 104.992C270.477 105.371 270.558 105.754 270.642 106.137" stroke="#364715" stroke-linecap="round" stroke-linejoin="round"/>
<path d="M335.047 80.0828C335.281 80.4384 335.438 80.8391 335.507 81.259" stroke="#364715" stroke-linecap="round" stroke-linejoin="round"/>
<path d="M336.287 79.1569C336.336 79.8977 336.382 80.6385 336.431 81.3793" stroke="#364715" stroke-linecap="round" stroke-linejoin="round"/>
<path d="M337.263 80.3259V81.2598" stroke="#364715" stroke-linecap="round" stroke-linejoin="round"/>
<path d="M340.521 85.4757L340.668 86.6412" stroke="#364715" stroke-linecap="round" stroke-linejoin="round"/>
<path d="M341.455 84.4232C341.504 85.0832 341.554 85.7456 341.606 86.4103" stroke="#364715" stroke-linecap="round" stroke-linejoin="round"/>
<path d="M330.834 91.2059C330.908 91.5956 330.985 91.9888 331.059 92.3785" stroke="#364715" stroke-linecap="round" stroke-linejoin="round"/>
<path d="M331.969 90.04L332.095 92.4975" stroke="#364715" stroke-linecap="round" stroke-linejoin="round"/>
<path d="M333.166 91.2089V92.378" stroke="#364715" stroke-linecap="round" stroke-linejoin="round"/>
<path d="M281.908 97.178V96.1247" stroke="#364715" stroke-linecap="round" stroke-linejoin="round"/>
<path d="M282.961 95.4187C282.936 95.891 282.982 96.3645 283.098 96.823" stroke="#364715" stroke-linecap="round" stroke-linejoin="round"/>
<path d="M236.854 115.433V116.838" stroke="#364715" stroke-linecap="round" stroke-linejoin="round"/>
<path d="M237.907 114.848V116.839" stroke="#364715" stroke-linecap="round" stroke-linejoin="round"/>
<path d="M224.215 97.1772C224.191 97.5807 224.264 97.9842 224.429 98.3533" stroke="#364715" stroke-linecap="round" stroke-linejoin="round"/>
<path d="M225.696 96.3597C225.745 97.0232 225.791 97.6833 225.84 98.3468" stroke="#364715" stroke-linecap="round" stroke-linejoin="round"/>
<path d="M226.911 98.2271C226.865 97.7958 226.902 97.3595 227.02 96.9422" stroke="#364715" stroke-linecap="round" stroke-linejoin="round"/>
<path d="M239.666 89.8009C239.786 90.2192 239.823 90.6569 239.775 91.0894" stroke="#364715" stroke-linecap="round" stroke-linejoin="round"/>
<path d="M240.628 89.331L240.86 91.0864" stroke="#364715" stroke-linecap="round" stroke-linejoin="round"/>
<path d="M267.531 79.7354C267.636 80.2058 267.738 80.6763 267.84 81.1397" stroke="#364715" stroke-linecap="round" stroke-linejoin="round"/>
<path d="M268.813 78.8024C268.761 79.5045 268.778 80.21 268.862 80.9089" stroke="#364715" stroke-linecap="round" stroke-linejoin="round"/>
<path d="M196.711 94.3686V92.9573" stroke="#364715" stroke-linecap="round" stroke-linejoin="round"/>
<path d="M198.116 94.4844V92.8448" stroke="#364715" stroke-linecap="round" stroke-linejoin="round"/>
<path d="M201.395 110.87V109.582" stroke="#364715" stroke-linecap="round" stroke-linejoin="round"/>
<path d="M202.564 110.751V108.413" stroke="#364715" stroke-linecap="round" stroke-linejoin="round"/>
<path d="M203.968 110.985V109.932" stroke="#364715" stroke-linecap="round" stroke-linejoin="round"/>
<path d="M180.562 111.572V112.857" stroke="#364715" stroke-linecap="round" stroke-linejoin="round"/>
<path d="M181.85 111.101V112.86" stroke="#364715" stroke-linecap="round" stroke-linejoin="round"/>
<path d="M152.008 108.528V109.697" stroke="#364715" stroke-linecap="round" stroke-linejoin="round"/>
<path d="M153.412 107.591V109.943" stroke="#364715" stroke-linecap="round" stroke-linejoin="round"/>
</g>
</svg>
