<svg width="58" height="50" viewBox="0 0 58 50" fill="none" xmlns="http://www.w3.org/2000/svg">
<path d="M53.4576 27.8103L49.6769 28.0602L48.9644 31.7771L45.3325 30.7189L43.3917 33.9679L40.3395 31.7293L37.4042 34.1221L35.2985 30.9742L31.7199 32.2185L30.8212 28.5388L27.0352 28.4856L27.4499 24.7208L23.9085 23.3755L25.5835 19.9777L22.7174 17.4997L25.4506 14.8836L23.6054 11.5761L27.0724 10.05L26.4715 6.31182L30.2469 6.06722L30.9595 2.345L34.5966 3.40849L36.5322 0.154211L39.5897 2.39285L42.5249 0L44.6306 3.14793L48.204 1.90896L49.1079 5.58333L52.8886 5.64183L52.4792 9.40126L56.0153 10.7519L54.3456 14.1444L57.2064 16.6224L54.4732 19.2386L56.3184 22.546L52.8514 24.0721L53.4576 27.8103Z" fill="url(#paint0_linear_1_291)"/>
<path d="M27.1894 17.0637C27.1894 19.5878 27.9379 22.0552 29.3402 24.1538C30.7425 26.2525 32.7356 27.8883 35.0675 28.8542C37.3995 29.8201 39.9654 30.0728 42.441 29.5804C44.9166 29.088 47.1905 27.8725 48.9753 26.0877C50.7601 24.303 51.9755 22.029 52.468 19.5534C52.9604 17.0779 52.7077 14.5119 51.7417 12.18C50.7758 9.84802 49.1401 7.85489 47.0414 6.45259C44.9427 5.0503 42.4753 4.30182 39.9513 4.30182C36.5666 4.30182 33.3206 5.64638 30.9273 8.0397C28.5339 10.433 27.1894 13.679 27.1894 17.0637Z" fill="url(#paint1_radial_1_291)"/>
<path style="mix-blend-mode:overlay" d="M41.9081 15.745C38.6591 13.0863 37.3883 9.09284 39.0739 6.77443C40.7595 4.45602 44.7636 4.71127 48.0179 7.34873C51.2722 9.98618 52.543 14.0115 50.8574 16.3246C49.1718 18.6377 45.1624 18.3878 41.9081 15.745Z" fill="url(#paint2_radial_1_291)"/>
<path style="mix-blend-mode:overlay" opacity="0.4" d="M28.673 19.8873C29.1037 18.4729 31.2945 19.0578 33.5703 21.1901C35.8462 23.3224 37.3351 26.2044 36.9044 27.6136C36.4737 29.0227 34.2829 28.4431 32.0123 26.3108C29.7418 24.1785 28.2476 21.2964 28.673 19.8873Z" fill="url(#paint3_radial_1_291)"/>
<path d="M39.2015 20.9295C38.9589 17.2955 37.3441 13.8895 34.6843 11.4013C32.0245 8.91324 28.5185 7.52899 24.8763 7.52899C21.2342 7.52899 17.7281 8.91324 15.0683 11.4013C12.4085 13.8895 10.7938 17.2955 10.5511 20.9295C7.75229 21.0535 5.11377 22.2703 3.20241 24.3185C1.29105 26.3668 0.259359 29.083 0.328993 31.8837C0.398627 34.6843 1.56403 37.346 3.57482 39.2967C5.5856 41.2474 8.28133 42.3316 11.0828 42.3163H38.6698C41.4713 42.3316 44.167 41.2474 46.1778 39.2967C48.1886 37.346 49.354 34.6843 49.4236 31.8837C49.4933 29.083 48.4616 26.3668 46.5502 24.3185C44.6388 22.2703 42.0003 21.0535 39.2015 20.9295Z" fill="url(#paint4_radial_1_291)"/>
<path d="M39.2015 20.9295C38.9589 17.2955 37.3441 13.8895 34.6843 11.4013C32.0245 8.91324 28.5185 7.52899 24.8763 7.52899C21.2342 7.52899 17.7281 8.91324 15.0683 11.4013C12.4085 13.8895 10.7938 17.2955 10.5511 20.9295C7.75229 21.0535 5.11377 22.2703 3.20241 24.3185C1.29105 26.3668 0.259359 29.083 0.328993 31.8837C0.398627 34.6843 1.56403 37.346 3.57482 39.2967C5.5856 41.2474 8.28133 42.3316 11.0828 42.3163H38.6698C41.4713 42.3316 44.167 41.2474 46.1778 39.2967C48.1886 37.346 49.354 34.6843 49.4236 31.8837C49.4933 29.083 48.4616 26.3668 46.5502 24.3185C44.6388 22.2703 42.0003 21.0535 39.2015 20.9295Z" fill="url(#paint5_radial_1_291)"/>
<path style="mix-blend-mode:overlay" d="M24.8923 22.2589C20.8669 18.994 19.293 14.0168 21.3774 11.1454C23.4619 8.27396 28.4284 8.59833 32.459 11.8632C36.4896 15.1282 38.0583 20.1053 35.9685 22.9767C33.8788 25.8482 28.9176 25.5079 24.8923 22.2589Z" fill="url(#paint6_radial_1_291)"/>
<path style="mix-blend-mode:overlay" opacity="0.4" d="M39.2919 31.9207C36.128 29.3524 34.8891 25.444 36.5322 23.1841C38.1753 20.9242 42.073 21.1848 45.2368 23.7478C48.4007 26.3108 49.6397 30.2298 47.9966 32.4844C46.3535 34.739 42.4558 34.489 39.2919 31.9207Z" fill="url(#paint7_radial_1_291)"/>
<path style="mix-blend-mode:overlay" opacity="0.2" d="M8.05187 32.2769C5.70156 28.6345 3.00561 26.8797 1.97934 28.358C0.953069 29.8362 2.03783 33.9891 4.37219 37.6316C6.70656 41.2741 9.42378 43.0554 10.4447 41.5559C11.4657 40.0564 10.3862 35.9247 8.05187 32.2769Z" fill="url(#paint8_radial_1_291)"/>
<path d="M12.9439 48.9047C12.6541 49.4067 12.1767 49.7731 11.6168 49.9232C11.0569 50.0732 10.4602 49.9947 9.95818 49.7049C9.45612 49.4151 9.08975 48.9377 8.93967 48.3778C8.78959 47.8179 8.86809 47.2212 9.15791 46.7192C9.75878 45.6557 13.4916 43.5766 13.4916 43.5766C13.4916 43.5766 13.5448 47.8412 12.9439 48.9047Z" fill="url(#paint9_radial_1_291)"/>
<path style="mix-blend-mode:overlay" d="M9.22173 48.5324C8.88141 47.6444 9.08879 46.7139 9.67903 46.448C10.2693 46.1821 11.0297 46.6926 11.37 47.5753C11.7103 48.458 11.5029 49.3939 10.9074 49.6544C10.3118 49.915 9.55673 49.4364 9.22173 48.5324Z" fill="url(#paint10_radial_1_291)"/>
<path d="M22.0847 48.9047C21.7948 49.4067 21.3175 49.7731 20.7575 49.9232C20.1976 50.0732 19.601 49.9947 19.0989 49.7049C18.5968 49.4151 18.2305 48.9377 18.0804 48.3778C17.9303 47.8179 18.0088 47.2212 18.2986 46.7192C18.8995 45.6557 22.6377 43.5766 22.6377 43.5766C22.6377 43.5766 22.6855 47.8412 22.0847 48.9047Z" fill="url(#paint11_radial_1_291)"/>
<path style="mix-blend-mode:overlay" d="M18.3624 48.5324C18.0221 47.6444 18.2295 46.7139 18.8197 46.448C19.41 46.1821 20.1704 46.6926 20.5107 47.5753C20.851 48.458 20.6436 49.3939 20.0481 49.6544C19.4525 49.915 18.7027 49.4364 18.3624 48.5324Z" fill="url(#paint12_radial_1_291)"/>
<path d="M31.2253 48.9046C30.9355 49.4067 30.4581 49.773 29.8982 49.9231C29.3383 50.0732 28.7416 49.9947 28.2396 49.7049C27.7375 49.4151 27.3712 48.9377 27.2211 48.3778C27.071 47.8178 27.1495 47.2212 27.4393 46.7191C28.0349 45.661 31.7571 43.5872 31.7571 43.5872C31.7571 43.5872 31.8315 47.8411 31.2253 48.9046Z" fill="url(#paint13_radial_1_291)"/>
<path style="mix-blend-mode:overlay" d="M27.5031 48.5324C27.1628 47.6444 27.3702 46.7139 27.9657 46.448C28.5613 46.1821 29.3111 46.6926 29.6514 47.5753C29.9917 48.458 29.7843 49.3939 29.1941 49.6544C28.6038 49.915 27.8434 49.4364 27.5031 48.5324Z" fill="url(#paint14_radial_1_291)"/>
<path d="M40.3714 48.9047C40.0816 49.4074 39.6039 49.7745 39.0435 49.925C38.483 50.0756 37.8857 49.9974 37.383 49.7076C36.8802 49.4178 36.5132 48.9401 36.3626 48.3797C36.212 47.8192 36.2902 47.222 36.58 46.7192C37.1862 45.6557 40.9191 43.5766 40.9191 43.5766C40.9191 43.5766 40.9722 47.8412 40.3714 48.9047Z" fill="url(#paint15_radial_1_291)"/>
<path style="mix-blend-mode:overlay" d="M36.6438 48.5324C36.3088 47.6444 36.5109 46.7139 37.1065 46.448C37.702 46.1821 38.4571 46.6926 38.7921 47.5753C39.1271 48.458 38.925 49.3939 38.3348 49.6544C37.7446 49.915 36.9842 49.4364 36.6438 48.5324Z" fill="url(#paint16_radial_1_291)"/>
<defs>
<linearGradient id="paint0_linear_1_291" x1="55.6856" y1="-0.510476" x2="25.3761" y2="33.3617" gradientUnits="userSpaceOnUse">
<stop stop-color="#FFBA24"/>
<stop offset="1" stop-color="#FF5500"/>
</linearGradient>
<radialGradient id="paint1_radial_1_291" cx="0" cy="0" r="1" gradientUnits="userSpaceOnUse" gradientTransform="translate(42.8812 9.05562) rotate(180) scale(24.2476 24.2476)">
<stop stop-color="#FFF4C3"/>
<stop offset="0.16" stop-color="#FFE036"/>
<stop offset="1" stop-color="#FA761C"/>
</radialGradient>
<radialGradient id="paint2_radial_1_291" cx="0" cy="0" r="1" gradientUnits="userSpaceOnUse" gradientTransform="translate(45.4868 6.38488) rotate(126.146) scale(5.1797 7.56843)">
<stop stop-color="white"/>
<stop offset="0.1" stop-color="white" stop-opacity="0.85"/>
<stop offset="0.29" stop-color="white" stop-opacity="0.59"/>
<stop offset="0.47" stop-color="white" stop-opacity="0.38"/>
<stop offset="0.63" stop-color="white" stop-opacity="0.22"/>
<stop offset="0.78" stop-color="white" stop-opacity="0.1"/>
<stop offset="0.91" stop-color="white" stop-opacity="0.03"/>
<stop offset="1" stop-color="white" stop-opacity="0"/>
</radialGradient>
<radialGradient id="paint3_radial_1_291" cx="0" cy="0" r="1" gradientUnits="userSpaceOnUse" gradientTransform="translate(27.4967 20.2446) rotate(-136.766) scale(5.63592 2.39542)">
<stop stop-color="white"/>
<stop offset="0.1" stop-color="white" stop-opacity="0.85"/>
<stop offset="0.29" stop-color="white" stop-opacity="0.59"/>
<stop offset="0.47" stop-color="white" stop-opacity="0.38"/>
<stop offset="0.63" stop-color="white" stop-opacity="0.22"/>
<stop offset="0.78" stop-color="white" stop-opacity="0.1"/>
<stop offset="0.91" stop-color="white" stop-opacity="0.03"/>
<stop offset="1" stop-color="white" stop-opacity="0"/>
</radialGradient>
<radialGradient id="paint4_radial_1_291" cx="0" cy="0" r="1" gradientUnits="userSpaceOnUse" gradientTransform="translate(31.0711 14.9556) rotate(180) scale(37.3604 27.2731)">
<stop stop-color="white"/>
<stop offset="0.2" stop-color="#D5F3FF"/>
<stop offset="1" stop-color="#85BCF1"/>
</radialGradient>
<radialGradient id="paint5_radial_1_291" cx="0" cy="0" r="1" gradientUnits="userSpaceOnUse" gradientTransform="translate(35.8781 17.0105) scale(32.8087 32.8087)">
<stop stop-color="#FFE036"/>
<stop offset="0.08" stop-color="#FECB31" stop-opacity="0.81"/>
<stop offset="0.18" stop-color="#FDB52B" stop-opacity="0.6"/>
<stop offset="0.28" stop-color="#FCA227" stop-opacity="0.41"/>
<stop offset="0.38" stop-color="#FB9223" stop-opacity="0.26"/>
<stop offset="0.48" stop-color="#FB8620" stop-opacity="0.15"/>
<stop offset="0.58" stop-color="#FA7D1E" stop-opacity="0.07"/>
<stop offset="0.68" stop-color="#FA781C" stop-opacity="0.02"/>
<stop offset="0.77" stop-color="#FA761C" stop-opacity="0"/>
</radialGradient>
<radialGradient id="paint6_radial_1_291" cx="0" cy="0" r="1" gradientUnits="userSpaceOnUse" gradientTransform="translate(29.1882 11.8713) rotate(126.146) scale(6.42162 9.38308)">
<stop stop-color="white"/>
<stop offset="0.1" stop-color="white" stop-opacity="0.85"/>
<stop offset="0.29" stop-color="white" stop-opacity="0.59"/>
<stop offset="0.47" stop-color="white" stop-opacity="0.38"/>
<stop offset="0.63" stop-color="white" stop-opacity="0.22"/>
<stop offset="0.78" stop-color="white" stop-opacity="0.1"/>
<stop offset="0.91" stop-color="white" stop-opacity="0.03"/>
<stop offset="1" stop-color="white" stop-opacity="0"/>
</radialGradient>
<radialGradient id="paint7_radial_1_291" cx="0" cy="0" r="1" gradientUnits="userSpaceOnUse" gradientTransform="translate(42.7899 22.627) rotate(126.146) scale(5.04339 7.36925)">
<stop stop-color="white"/>
<stop offset="0.1" stop-color="white" stop-opacity="0.85"/>
<stop offset="0.29" stop-color="white" stop-opacity="0.59"/>
<stop offset="0.47" stop-color="white" stop-opacity="0.38"/>
<stop offset="0.63" stop-color="white" stop-opacity="0.22"/>
<stop offset="0.78" stop-color="white" stop-opacity="0.1"/>
<stop offset="0.91" stop-color="white" stop-opacity="0.03"/>
<stop offset="1" stop-color="white" stop-opacity="0"/>
</radialGradient>
<radialGradient id="paint8_radial_1_291" cx="0" cy="0" r="1" gradientUnits="userSpaceOnUse" gradientTransform="translate(5.71389 34.6061) rotate(-25.5374) scale(2.58299 7.52855)">
<stop stop-color="white"/>
<stop offset="0.1" stop-color="white" stop-opacity="0.85"/>
<stop offset="0.29" stop-color="white" stop-opacity="0.59"/>
<stop offset="0.47" stop-color="white" stop-opacity="0.38"/>
<stop offset="0.63" stop-color="white" stop-opacity="0.22"/>
<stop offset="0.78" stop-color="white" stop-opacity="0.1"/>
<stop offset="0.91" stop-color="white" stop-opacity="0.03"/>
<stop offset="1" stop-color="white" stop-opacity="0"/>
</radialGradient>
<radialGradient id="paint9_radial_1_291" cx="0" cy="0" r="1" gradientUnits="userSpaceOnUse" gradientTransform="translate(10.0149 48.3986) rotate(30) scale(5.25896 5.25896)">
<stop stop-color="#D0F2FF"/>
<stop offset="0.2" stop-color="#D5F3FF"/>
<stop offset="1" stop-color="#85BCF1"/>
</radialGradient>
<radialGradient id="paint10_radial_1_291" cx="0" cy="0" r="1" gradientUnits="userSpaceOnUse" gradientTransform="translate(17.3178 51.8339) rotate(155.956) scale(1.17327 1.71961)">
<stop stop-color="white"/>
<stop offset="0.1" stop-color="white" stop-opacity="0.85"/>
<stop offset="0.29" stop-color="white" stop-opacity="0.59"/>
<stop offset="0.47" stop-color="white" stop-opacity="0.38"/>
<stop offset="0.63" stop-color="white" stop-opacity="0.22"/>
<stop offset="0.78" stop-color="white" stop-opacity="0.1"/>
<stop offset="0.91" stop-color="white" stop-opacity="0.03"/>
<stop offset="1" stop-color="white" stop-opacity="0"/>
</radialGradient>
<radialGradient id="paint11_radial_1_291" cx="0" cy="0" r="1" gradientUnits="userSpaceOnUse" gradientTransform="translate(19.1557 48.4017) rotate(30) scale(5.25896 5.25896)">
<stop stop-color="#D0F2FF"/>
<stop offset="0.2" stop-color="#D5F3FF"/>
<stop offset="1" stop-color="#85BCF1"/>
</radialGradient>
<radialGradient id="paint12_radial_1_291" cx="0" cy="0" r="1" gradientUnits="userSpaceOnUse" gradientTransform="translate(26.4444 51.8317) rotate(155.956) scale(1.17327 1.71961)">
<stop stop-color="white"/>
<stop offset="0.1" stop-color="white" stop-opacity="0.85"/>
<stop offset="0.29" stop-color="white" stop-opacity="0.59"/>
<stop offset="0.47" stop-color="white" stop-opacity="0.38"/>
<stop offset="0.63" stop-color="white" stop-opacity="0.22"/>
<stop offset="0.78" stop-color="white" stop-opacity="0.1"/>
<stop offset="0.91" stop-color="white" stop-opacity="0.03"/>
<stop offset="1" stop-color="white" stop-opacity="0"/>
</radialGradient>
<radialGradient id="paint13_radial_1_291" cx="0" cy="0" r="1" gradientUnits="userSpaceOnUse" gradientTransform="translate(28.2991 48.4001) rotate(30) scale(5.25896)">
<stop stop-color="#D0F2FF"/>
<stop offset="0.2" stop-color="#D5F3FF"/>
<stop offset="1" stop-color="#85BCF1"/>
</radialGradient>
<radialGradient id="paint14_radial_1_291" cx="0" cy="0" r="1" gradientUnits="userSpaceOnUse" gradientTransform="translate(35.575 51.8399) rotate(155.956) scale(1.17327 1.71961)">
<stop stop-color="white"/>
<stop offset="0.1" stop-color="white" stop-opacity="0.85"/>
<stop offset="0.29" stop-color="white" stop-opacity="0.59"/>
<stop offset="0.47" stop-color="white" stop-opacity="0.38"/>
<stop offset="0.63" stop-color="white" stop-opacity="0.22"/>
<stop offset="0.78" stop-color="white" stop-opacity="0.1"/>
<stop offset="0.91" stop-color="white" stop-opacity="0.03"/>
<stop offset="1" stop-color="white" stop-opacity="0"/>
</radialGradient>
<radialGradient id="paint15_radial_1_291" cx="0" cy="0" r="1" gradientUnits="userSpaceOnUse" gradientTransform="translate(37.4425 48.3987) rotate(30) scale(5.25896)">
<stop stop-color="#D0F2FF"/>
<stop offset="0.2" stop-color="#D5F3FF"/>
<stop offset="1" stop-color="#85BCF1"/>
</radialGradient>
<radialGradient id="paint16_radial_1_291" cx="0" cy="0" r="1" gradientUnits="userSpaceOnUse" gradientTransform="translate(44.7016 51.8377) rotate(155.956) scale(1.17327 1.71961)">
<stop stop-color="white"/>
<stop offset="0.1" stop-color="white" stop-opacity="0.85"/>
<stop offset="0.29" stop-color="white" stop-opacity="0.59"/>
<stop offset="0.47" stop-color="white" stop-opacity="0.38"/>
<stop offset="0.63" stop-color="white" stop-opacity="0.22"/>
<stop offset="0.78" stop-color="white" stop-opacity="0.1"/>
<stop offset="0.91" stop-color="white" stop-opacity="0.03"/>
<stop offset="1" stop-color="white" stop-opacity="0"/>
</radialGradient>
</defs>
</svg>
